<svg width="100" height="35" viewBox="0 0 100 35" fill="none" xmlns="http://www.w3.org/2000/svg">
<path d="M29.8798 7.78707L15.9993 0.0178833L8.49219 4.21987L12.3962 6.40499L15.9993 4.38851L25.9756 9.97258L17.9513 14.4641L16.789 15.1143L17.9513 15.7651L18.7538 16.2142V18.3855L19.8848 17.7521L27.7116 13.3715V24.0556L18.7538 29.07V33.4402L31.6159 26.2411V8.75914L29.8798 7.78707Z" fill="white"/>
<path d="M17.9513 28.5496V21.0405V20.8951V18.8345V16.6636L15.9864 15.5639L15.9807 15.567L14.0472 14.4846L6.00442 9.98272L11.5936 6.85438L7.68939 4.66907L2.10036 7.7976L0.382812 8.75895V11.2067V26.2411L4.28687 28.4264V24.0558V22.7829V13.392L12.0767 17.7521L14.0472 18.8552V21.0198V28.5496V29.5189V33.8896L15.9992 34.9821L17.9513 33.8896V29.5189V28.5496Z" fill="white"/>
<path d="M41.9912 25.5C41.8152 25.5 41.6712 25.444 41.5592 25.332C41.4472 25.22 41.3912 25.076 41.3912 24.9V9.3C41.3912 9.124 41.4472 8.98 41.5592 8.868C41.6712 8.756 41.8152 8.7 41.9912 8.7H44.6072C44.7832 8.7 44.9272 8.756 45.0392 8.868C45.1512 8.98 45.2072 9.124 45.2072 9.3V15.3H51.7112V9.3C51.7112 9.124 51.7672 8.98 51.8792 8.868C51.9912 8.756 52.1352 8.7 52.3112 8.7H54.9272C55.1032 8.7 55.2472 8.756 55.3592 8.868C55.4712 8.98 55.5272 9.124 55.5272 9.3V24.9C55.5272 25.076 55.4712 25.22 55.3592 25.332C55.2472 25.444 55.1032 25.5 54.9272 25.5H52.3112C52.1352 25.5 51.9912 25.444 51.8792 25.332C51.7672 25.22 51.7112 25.076 51.7112 24.9V18.708H45.2072V24.9C45.2072 25.076 45.1512 25.22 45.0392 25.332C44.9272 25.444 44.7832 25.5 44.6072 25.5H41.9912ZM64.3905 25.74C62.5505 25.74 61.0865 25.228 59.9985 24.204C58.9265 23.18 58.3585 21.692 58.2945 19.74C58.2945 19.612 58.2945 19.444 58.2945 19.236C58.2945 19.012 58.2945 18.836 58.2945 18.708C58.3585 17.476 58.6385 16.42 59.1345 15.54C59.6305 14.644 60.3265 13.964 61.2225 13.5C62.1185 13.02 63.1665 12.78 64.3665 12.78C65.7105 12.78 66.8305 13.06 67.7265 13.62C68.6385 14.164 69.3185 14.916 69.7665 15.876C70.2305 16.82 70.4625 17.908 70.4625 19.14V19.692C70.4625 19.852 70.3985 19.988 70.2705 20.1C70.1585 20.212 70.0225 20.268 69.8625 20.268H62.0145C62.0145 20.284 62.0145 20.316 62.0145 20.364C62.0145 20.396 62.0145 20.428 62.0145 20.46C62.0305 20.972 62.1265 21.444 62.3025 21.876C62.4945 22.292 62.7585 22.628 63.0945 22.884C63.4465 23.14 63.8625 23.268 64.3425 23.268C64.7425 23.268 65.0705 23.212 65.3265 23.1C65.5825 22.988 65.7905 22.852 65.9505 22.692C66.1265 22.532 66.2545 22.396 66.3345 22.284C66.4785 22.124 66.5905 22.028 66.6705 21.996C66.7665 21.948 66.9105 21.924 67.1025 21.924H69.5985C69.7585 21.924 69.8865 21.972 69.9825 22.068C70.0945 22.148 70.1425 22.268 70.1265 22.428C70.1105 22.684 69.9745 23.004 69.7185 23.388C69.4785 23.756 69.1185 24.124 68.6385 24.492C68.1585 24.844 67.5585 25.14 66.8385 25.38C66.1345 25.62 65.3185 25.74 64.3905 25.74ZM62.0145 18.084H66.7185V18.036C66.7185 17.46 66.6225 16.964 66.4305 16.548C66.2545 16.116 65.9905 15.78 65.6385 15.54C65.2865 15.3 64.8625 15.18 64.3665 15.18C63.8705 15.18 63.4465 15.3 63.0945 15.54C62.7425 15.78 62.4705 16.116 62.2785 16.548C62.1025 16.964 62.0145 17.46 62.0145 18.036V18.084ZM73.4616 25.5C73.2856 25.5 73.1416 25.444 73.0296 25.332C72.9176 25.22 72.8616 25.076 72.8616 24.9V9.06C72.8616 8.884 72.9176 8.74 73.0296 8.628C73.1416 8.516 73.2856 8.46 73.4616 8.46H75.8616C76.0216 8.46 76.1576 8.516 76.2696 8.628C76.3816 8.74 76.4376 8.884 76.4376 9.06V24.9C76.4376 25.076 76.3816 25.22 76.2696 25.332C76.1576 25.444 76.0216 25.5 75.8616 25.5H73.4616ZM80.7032 25.5C80.5432 25.5 80.4072 25.444 80.2952 25.332C80.1832 25.22 80.1272 25.076 80.1272 24.9V13.62C80.1272 13.444 80.1832 13.3 80.2952 13.188C80.4072 13.076 80.5432 13.02 80.7032 13.02H83.1032C83.2792 13.02 83.4232 13.076 83.5352 13.188C83.6472 13.3 83.7032 13.444 83.7032 13.62V24.9C83.7032 25.076 83.6472 25.22 83.5352 25.332C83.4232 25.444 83.2792 25.5 83.1032 25.5H80.7032ZM80.6312 11.1C80.4712 11.1 80.3352 11.044 80.2232 10.932C80.1112 10.82 80.0552 10.676 80.0552 10.5V8.58C80.0552 8.404 80.1112 8.26 80.2232 8.148C80.3352 8.02 80.4712 7.956 80.6312 7.956H83.1512C83.3272 7.956 83.4712 8.02 83.5832 8.148C83.7112 8.26 83.7752 8.404 83.7752 8.58V10.5C83.7752 10.676 83.7112 10.82 83.5832 10.932C83.4712 11.044 83.3272 11.1 83.1512 11.1H80.6312ZM86.1852 25.5C86.0412 25.5 85.9132 25.452 85.8012 25.356C85.7052 25.244 85.6572 25.116 85.6572 24.972C85.6572 24.924 85.6652 24.868 85.6812 24.804C85.7132 24.724 85.7532 24.652 85.8012 24.588L89.8572 19.092L86.1372 13.932C86.0892 13.868 86.0492 13.804 86.0172 13.74C86.0012 13.676 85.9932 13.612 85.9932 13.548C85.9932 13.404 86.0412 13.284 86.1372 13.188C86.2492 13.076 86.3772 13.02 86.5212 13.02H89.0172C89.2092 13.02 89.3532 13.068 89.4492 13.164C89.5612 13.26 89.6412 13.348 89.6892 13.428L92.1612 16.788L94.6332 13.452C94.6972 13.372 94.7772 13.284 94.8732 13.188C94.9692 13.076 95.1212 13.02 95.3292 13.02H97.7052C97.8492 13.02 97.9692 13.076 98.0652 13.188C98.1772 13.284 98.2332 13.404 98.2332 13.548C98.2332 13.612 98.2252 13.676 98.2092 13.74C98.1932 13.804 98.1532 13.868 98.0892 13.932L94.2972 19.116L98.4012 24.588C98.4492 24.652 98.4812 24.716 98.4972 24.78C98.5292 24.844 98.5452 24.908 98.5452 24.972C98.5452 25.116 98.4892 25.244 98.3772 25.356C98.2812 25.452 98.1612 25.5 98.0172 25.5H95.4012C95.2252 25.5 95.0892 25.46 94.9932 25.38C94.8972 25.284 94.8172 25.196 94.7532 25.116L92.0892 21.564L89.3772 25.116C89.3292 25.18 89.2572 25.26 89.1612 25.356C89.0652 25.452 88.9212 25.5 88.7292 25.5H86.1852Z" fill="white"/>
</svg>
